<svg width="400" height="400" viewBox="0 0 400 400" fill="none" xmlns="http://www.w3.org/2000/svg">
<g clip-path="url(#clip0_211_2)">
<path d="M366.654 130.616C351.508 94.2646 324.889 63.8639 290.856 44.0496C256.823 24.2353 217.244 16.0947 178.154 20.869C139.064 25.6434 102.608 43.0707 74.345 70.4937C46.0818 97.9166 27.5624 133.83 21.6108 172.759C15.6592 211.687 22.602 251.493 41.3805 286.108C60.1589 320.723 89.7426 348.247 125.62 364.483C161.498 380.719 201.702 384.776 240.1 376.035C278.498 367.295 312.984 346.236 338.3 316.071L318.68 299.605C296.956 325.49 267.364 343.56 234.415 351.06C201.466 358.56 166.967 355.079 136.181 341.147C105.394 327.215 80.0087 303.597 63.8951 273.894C47.7814 244.191 41.8239 210.034 46.9309 176.63C52.0379 143.226 67.9293 112.408 92.1817 88.8769C116.434 65.3455 147.717 50.3912 181.26 46.2944C214.803 42.1975 248.765 49.1829 277.968 66.1855C307.171 83.188 330.013 109.275 343.01 140.467L366.654 130.616Z" fill="#FFD14F"/>
<path d="M41.997 165.897C37.557 165.897 35.277 162.897 35.157 156.897C35.157 150.777 37.437 147.717 41.997 147.717H75.117V137.457C75.117 131.697 78.657 128.817 85.737 128.817C92.937 128.817 96.537 131.697 96.537 137.457V147.717H129.117C133.797 147.717 136.077 150.777 135.957 156.897C135.957 162.897 133.677 165.897 129.117 165.897H118.137C122.697 171.657 124.977 178.077 124.977 185.157C124.977 194.397 121.197 202.437 113.637 209.277C108.597 213.717 102.897 216.717 96.537 218.277V233.937C96.537 236.697 95.697 239.217 94.017 241.497C92.457 243.657 89.517 244.737 85.197 244.737H39.477C34.917 244.737 32.637 241.737 32.637 235.737C32.757 229.617 35.037 226.557 39.477 226.557H73.497C74.337 226.557 74.817 226.377 74.937 226.017C75.057 225.657 75.117 225.237 75.117 224.757V218.277C68.637 216.717 62.877 213.717 57.837 209.277C50.277 202.557 46.497 194.517 46.497 185.157C46.497 177.957 48.717 171.537 53.157 165.897H41.997ZM196.977 258.597C196.977 268.917 192.837 277.737 184.557 285.057C176.277 292.497 166.197 296.217 154.317 296.217C142.317 296.217 132.117 292.557 123.717 285.237C115.437 277.917 111.297 269.037 111.297 258.597C111.297 248.157 115.437 239.277 123.717 231.957C132.117 224.637 142.317 220.977 154.317 220.977C166.197 220.977 176.277 224.697 184.557 232.137C192.837 239.457 196.977 248.277 196.977 258.597ZM168.357 209.097C168.357 214.857 164.757 217.737 157.557 217.737C150.477 217.737 146.937 214.857 146.937 209.097V139.077C146.937 133.317 150.477 130.437 157.557 130.437C164.757 130.437 168.357 133.317 168.357 139.077V209.097ZM175.557 258.597C175.557 253.197 173.457 248.637 169.257 244.917C165.177 241.197 160.197 239.337 154.317 239.337C148.437 239.337 143.397 241.197 139.197 244.917C135.117 248.637 133.077 253.197 133.077 258.597C133.077 263.997 135.117 268.557 139.197 272.277C143.397 275.997 148.437 277.857 154.317 277.857C160.197 277.857 165.177 275.997 169.257 272.277C173.457 268.557 175.557 263.997 175.557 258.597ZM103.917 183.717C103.917 178.797 102.117 174.657 98.517 171.297C95.037 167.937 90.837 166.257 85.917 166.257C80.877 166.257 76.617 167.937 73.137 171.297C69.657 174.657 67.917 178.797 67.917 183.717C67.917 188.637 69.657 192.777 73.137 196.137C76.617 199.497 80.877 201.177 85.917 201.177C90.837 201.177 95.037 199.497 98.517 196.137C102.117 192.777 103.917 188.637 103.917 183.717ZM202.017 169.677C202.017 173.517 200.637 176.817 197.877 179.577C195.237 182.217 191.997 183.537 188.157 183.537C184.317 183.537 181.017 182.217 178.257 179.577C175.617 176.817 174.297 173.517 174.297 169.677C174.297 165.837 175.617 162.597 178.257 159.957C181.017 157.197 184.317 155.817 188.157 155.817C191.997 155.817 195.237 157.197 197.877 159.957C200.637 162.597 202.017 165.837 202.017 169.677Z" fill="#42403A"/>
<path d="M371.117 252.837C371.117 255.597 370.277 258.117 368.597 260.397C367.037 262.557 364.097 263.637 359.777 263.637H287.237C286.397 263.637 285.917 263.817 285.797 264.177C285.677 264.537 285.617 264.957 285.617 265.437V271.917C285.617 272.397 285.677 272.817 285.797 273.177C285.917 273.537 286.397 273.717 287.237 273.717H368.957C373.517 273.717 375.737 276.717 375.617 282.717C375.617 288.837 373.397 291.897 368.957 291.897H275.537C271.217 291.897 268.217 290.757 266.537 288.477C264.977 286.317 264.197 283.857 264.197 281.097V256.257C264.197 253.497 264.977 251.037 266.537 248.877C268.217 246.597 271.217 245.457 275.537 245.457H348.077C348.917 245.457 349.397 245.277 349.517 244.917C349.637 244.557 349.697 244.137 349.697 243.657V237.177C349.697 236.697 349.637 236.277 349.517 235.917C349.397 235.557 348.917 235.377 348.077 235.377H269.957C265.517 235.377 263.237 232.377 263.117 226.377C263.117 220.257 265.397 217.197 269.957 217.197H359.777C364.097 217.197 367.037 218.337 368.597 220.617C370.277 222.777 371.117 225.237 371.117 227.997V252.837ZM262.397 141.417C262.397 135.657 265.937 132.777 273.017 132.777C280.217 132.777 283.817 135.657 283.817 141.417V165.717C284.897 163.437 286.817 162.297 289.577 162.297H301.277V139.257C301.277 133.497 304.817 130.617 311.897 130.617C319.097 130.617 322.697 133.497 322.697 139.257V206.397C322.697 212.157 319.097 215.037 311.897 215.037C304.817 215.037 301.277 212.157 301.277 206.397V180.477H289.577C286.817 180.477 284.897 179.337 283.817 177.057V204.057C283.817 209.817 280.217 212.757 273.017 212.877C265.937 212.877 262.397 209.937 262.397 204.057V180.477H242.597C238.157 180.477 235.877 177.477 235.757 171.477C235.757 165.357 238.037 162.297 242.597 162.297H262.397V141.417ZM212.897 141.417C212.897 135.657 216.437 132.777 223.517 132.777C230.717 132.777 234.317 135.657 234.317 141.417V215.397C234.317 215.877 234.377 216.297 234.497 216.657C234.617 217.017 235.097 217.197 235.937 217.197H253.217C257.777 217.197 259.997 220.257 259.877 226.377C259.877 232.377 257.657 235.377 253.217 235.377H224.237C219.917 235.377 216.917 234.297 215.237 232.137C213.677 229.857 212.897 227.337 212.897 224.577V141.417ZM358.337 206.397C358.337 212.157 354.737 215.037 347.537 215.037C340.457 215.037 336.917 212.157 336.917 206.397V139.257C336.917 133.497 340.457 130.617 347.537 130.617C354.737 130.617 358.337 133.497 358.337 139.257V206.397Z" fill="#42403A"/>
</g>
<defs>
<clipPath id="clip0_211_2">
<rect width="400" height="400" fill="white"/>
</clipPath>
</defs>
</svg>
